Coordinates
version=1
nRows=17
nColumns=24
inDegrees=yes

Units are S.I. units (second, meters, Newtons, ...)
Angles are in degrees.

endheader
time	pelvis_tilt	pelvis_list	pelvis_rotation	pelvis_tx	pelvis_ty	pelvis_tz	hip_flexion_r	hip_adduction_r	hip_rotation_r	knee_angle_r	ankle_angle_r	subtalar_angle_r	mtp_angle_r	hip_flexion_l	hip_adduction_l	hip_rotation_l	knee_angle_l	ankle_angle_l	subtalar_angle_l	mtp_angle_l	lumbar_extension	lumbar_bending	lumbar_rotation
      2.10500000	      1.68353604	      0.77534218	     -2.04150998	      1.11065443	      0.88104350	     -0.00101880	     -5.28648145	     -0.47851746	     -1.63597258	    -54.93036217	     -4.00882624	     -1.60798264	     53.63805648	     22.32969184	      5.32423932	     -2.27861938	    -26.45492424	     12.30726787	     -6.87526841	     27.07968273	     -9.92152756	     -3.40625391	     -1.32574962
      2.11000000	      1.73664793	      1.17844581	     -2.05028466	      1.11839309	      0.88179691	     -0.00103898	     -4.20832569	     -0.92677484	     -1.60166660	    -56.65708010	     -4.07227569	     -2.93402684	     52.97923751	     21.77357423	      5.72516183	     -2.50535091	    -26.54272911	     12.86569429	     -6.55598552	     26.95595174	     -9.98915666	     -3.89776840	     -1.43040241
      2.11500000	      1.75777366	      1.54016485	     -2.01376251	      1.12605389	      0.88257039	     -0.00111304	     -3.09167042	     -1.33361967	     -1.61056669	    -58.33734889	     -3.51690757	     -3.62393425	     49.16846186	     21.24020878	      6.09546811	     -2.67474562	    -26.61779086	     13.57167025	     -6.01256056	     25.61670175	    -10.03527402	     -4.33157983	     -1.58323415
      2.12000000	      1.80988019	      1.82876966	     -2.00903318	      1.13371691	      0.88355220	     -0.00108306	     -2.02461582	     -1.64585913	     -1.57084276	    -59.83829709	     -3.05206093	     -4.57640649	     47.56276754	     20.60553244	      6.36932593	     -2.87556822	    -26.57356022	     14.23800020	     -5.42949363	     25.02905398	    -10.11136820	     -4.68782625	     -1.72998125
      2.12500000	      1.89542432	      2.09432248	     -2.01862728	      1.14134630	      0.88470293	     -0.00108506	     -0.99654644	     -1.94516118	     -1.53324951	    -61.22362724	     -2.37882639	     -5.39533686	     45.60925919	     19.87266947	      6.63681328	     -3.01866680	    -26.40313782	     14.81223520	     -4.99813288	     24.28597350	    -10.22659058	     -5.01017525	     -1.78211321
      2.13000000	      1.99163462	      2.33611893	     -1.98492583	      1.14893823	      0.88595970	     -0.00118014	      0.00948561	     -2.23353727	     -1.55649093	    -62.47498864	     -1.67076591	     -6.19201775	     45.43312364	     19.09658327	      6.91411252	     -3.06238713	    -26.15934604	     15.18111100	     -4.83939009	     24.26382622	    -10.36160341	     -5.29049133	     -1.94942465
      2.13500000	      2.08876823	      2.48151352	     -2.05239572	      1.15658362	      0.88733578	     -0.00101962	      1.01399323	     -2.37737799	     -1.43705356	    -63.61888019	     -0.65761309	     -6.69769735	     42.42055661	     18.26459014	      7.03223552	     -3.23945530	    -25.85103772	     15.86348547	     -4.27360895	     23.16512595	    -10.47914466	     -5.48196346	     -1.99823404
      2.14000000	      2.19257500	      2.59574927	     -2.13664921	      1.16413292	      0.88880420	     -0.00088110	      2.01926999	     -2.49410322	     -1.32342226	    -64.63041637	      0.23688558	     -7.39986175	     41.97535291	     17.38966769	      7.13674174	     -3.36381950	    -25.43707840	     16.24256315	     -4.03425725	     22.98337093	    -10.61298184	     -5.63159144	     -1.97278190
      2.14500000	      2.31138717	      2.67032472	     -2.13357448	      1.17170402	      0.89035869	     -0.00084866	      2.96969236	     -2.58185884	     -1.32355883	    -65.51099224	      1.38302396	     -7.75717219	     40.17431515	     16.46585009	      7.22757596	     -3.36950862	    -24.97934997	     16.71046457	     -3.57578627	     22.17632665	    -10.76389830	     -5.72081059	     -2.03622297
      2.15000000	      2.39914734	      2.72765846	     -2.21967237	      1.17925634	      0.89190731	     -0.00069174	      3.97889938	     -2.64140023	     -1.23702889	    -66.29376314	      2.35948482	     -8.25607492	     39.92120525	     15.55291694	      7.28854847	     -3.42103723	    -24.46659459	     17.07230889	     -3.40424828	     22.08379768	    -10.87266974	     -5.79889311	     -2.06161155
      2.15500000	      2.56351775	      2.71825785	     -2.22476996	      1.18686462	      0.89363247	     -0.00060257	      4.84403862	     -2.62836977	     -1.24368008	    -66.91148223	      3.56599114	     -8.53095437	     38.34098841	     14.51685143	      7.30047815	     -3.39005417	    -23.89693001	     17.46086546	     -3.07517306	     21.41442930	    -11.07139873	     -5.79055441	     -2.17527498
      2.16000000	      2.62414345	      2.67715357	     -2.25181431	      1.19436677	      0.89521136	     -0.00051191	      5.84266101	     -2.57493995	     -1.23046040	    -67.44402721	      4.61979625	     -8.93679661	     38.35555461	     13.60157309	      7.28598968	     -3.29717478	    -23.31999385	     17.69716930	     -2.96986511	     21.41719895	    -11.15512633	     -5.73941287	     -2.22262292
      2.16500000	      2.83744259	      2.63584374	     -2.41632423	      1.20202748	      0.89707980	     -0.00017110	      6.65322200	     -2.51331439	     -1.10127292	    -67.83489895	      5.71719861	     -9.14839468	     37.92880011	     12.42331588	      7.23547324	     -3.42015006	    -22.56692826	     17.94410061	     -2.74932884	     21.25170107	    -11.38178505	     -5.71783923	     -2.14844536
      2.17000000	      2.86679022	      2.53447726	     -2.40223710	      1.20960517	      0.89864876	     -0.00010362	      7.63141550	     -2.40479442	     -1.17976068	    -68.11781767	      6.72806290	     -9.52087052	     37.91898754	     11.49280783	      7.17246845	     -3.23980048	    -21.90465338	     18.12659597	     -2.67065185	     21.23993216	    -11.42006458	     -5.58806938	     -2.21984109
      2.17500000	      3.18230314	      2.44867867	     -2.50888347	      1.21728177	      0.90064433	      0.00021051	      8.27280420	     -2.30436790	     -1.15197627	    -68.27524818	      7.88569784	     -9.63659662	     36.29205267	     10.17024788	      7.10053995	     -3.25014767	    -21.09259617	     18.37902997	     -2.36803309	     20.68866532	    -11.76630685	     -5.51242971	     -2.22278662
      2.18000000	      3.26268314	      2.36196440	     -2.59902293	      1.22488305	      0.90225965	      0.00041380	      9.18346060	     -2.20678208	     -1.13758227	    -68.37330483	      8.89161488	     -9.78957892	     36.21195867	      9.11709058	      7.05467618	     -3.12870852	    -20.27973735	     18.41714621	     -2.51396039	     20.61763084	    -11.84705082	     -5.41217875	     -2.20646562
      2.18500000	      3.46092817	      2.22686231	     -2.68370613	      1.23249941	      0.90402566	      0.00066370	      9.92371714	     -2.05603756	     -1.15145225	    -68.33192370	      9.82791095	     -9.98186089	     35.98212579	      7.91917600	      6.95484075	     -3.01478142	    -19.44543058	     18.48230817	     -2.51064553	     20.54857496	    -12.06343899	     -5.26521950	     -2.18608426
